- 
http://www.Speed.Cd      fast  and The Hottest Private Tracker on the net

   signup is open now

Please Seed back to make the speed Faster!!!

------------------nfo--------------------------
-[img]http://ecx.images-amazon.com/images/I/51NuSmrbzwL._SL500_AA300_.jpg[/img]
[img]http://img265.imageshack.us/img265/7270/jtcaddranalogavisnapsho.png[/img]
[img]http://img268.imageshack.us/img268/7270/jtcaddranalogavisnapsho.png[/img]
[img]http://img163.imageshack.us/img163/7270/jtcaddranalogavisnapsho.png[/img]

Complete name                            : C:\Users\root\Desktop\Jethro - The Cornish Ambassador.DVDRip.Ac3.Xvid.ANALOG\J.T.C.A.DDR.ANALOG.avi
Format                                   : AVI
Format/Info                              : Audio Video Interleave
File size                                : 702 MiB
Duration                                 : 1h 6mn
Overall bit rate                         : 1 467 Kbps
Movie name                               : J.T.C.A.DDR.ANALOG
Writing application                      : VirtualDubMod 1.5.4.1 (build 2178/release) VirtualDubMod build 2178/release
Writing library                          : VirtualDub build 32842/release
Copyright                                : ANALOG
Encoded by                               : Cooperman

Video
ID                                       : 0
Format                                   : MPEG-4 Visual
Format profile                           : Advanced Simple@L5
Format settings, BVOP                    : 1
Format settings, QPel                    : No
Format settings, GMC                     : No warppoints
Format settings, Matrix                  : Custom
Codec ID                                 : XVID
Codec ID/Hint                            : XviD
Duration                                 : 1h 6mn
Bit rate                                 : 1 234 Kbps
Width                                    : 688 pixels
Height                                   : 384 pixels
Display aspect ratio                     : 16:9
Frame rate                               : 23.976 fps
Color space                              : YUV
Chroma subsampling                       : 4:2:0
Bit depth                                : 8 bits
Scan type                                : Progressive
Compression mode                         : Lossy
Bits/(Pixel*Frame)                       : 0.195
Stream size                              : 590 MiB (84%)
Writing library                          : XviD 64

Audio
ID                                       : 1
Format                                   : AC-3
Format/Info                              : Audio Coding 3
Mode extension                           : CM (complete main)
Codec ID                                 : 2000
Duration                                 : 1h 6mn
Bit rate mode                            : Constant
Bit rate                                 : 224 Kbps
Channel(s)                               : 2 channels
Channel positions                        : Front: L R
Sampling rate                            : 48.0 KHz
Bit depth                                : 16 bits
Compression mode                         : Lossy
Delay relative to video                  : 506ms
Stream size                              : 107 MiB (15%)
Alignment                                : Split accross interleaves
Interleave, duration                     : 42 ms (1.00 video frame)
Interleave, preload duration             : 500 ms
Sample                                   : Yes! check it!! thats what its for!!
source file                              : Jethro - The Cornish Ambassador DVD-R  THANX :)
As humans, we perceive the world in analog. Everything we see and hear is a continuous transmission of information to our senses.
ANALOG.P.2.P@HUSHMAIL.COM
GREATINGS TO ALL THE P2P PLACES I LURK AT!!